<?xml version="1.0" encoding="UTF-8" standalone="no"?>
<!DOCTYPE svg PUBLIC "-//W3C//DTD SVG 1.1//EN"
 "http://www.w3.org/Graphics/SVG/1.1/DTD/svg11.dtd">
<!-- Generated by graphviz version 2.40.1 (20161225.0304)
 -->
<!-- Title: state transitions Pages: 1 -->
<svg width="1091pt" height="434pt"
 viewBox="0.00 0.00 1091.00 434.00" xmlns="http://www.w3.org/2000/svg" xmlns:xlink="http://www.w3.org/1999/xlink">
<g id="graph0" class="graph" transform="scale(1 1) rotate(0) translate(4 430)">
<title>state transitions</title>
<polygon fill="#ffffff" stroke="transparent" points="-4,4 -4,-430 1087,-430 1087,4 -4,4"/>
<g id="clust1" class="cluster state regular">
<title>cluster_next_state</title>
<path fill="none" stroke="#000000" stroke-width="2" d="M20,-8C20,-8 1063,-8 1063,-8 1069,-8 1075,-14 1075,-20 1075,-20 1075,-406 1075,-406 1075,-412 1069,-418 1063,-418 1063,-418 20,-418 20,-418 14,-418 8,-412 8,-406 8,-406 8,-20 8,-20 8,-14 14,-8 20,-8"/>
<text text-anchor="start" x="514.3208" y="-399.2" font-family="Helvetica,sans-Serif" font-size="12.00" fill="#000000">next_state</text>
</g>
<!-- next_state -->
<!-- FETCH -->
<g id="node2" class="node state regular">
<title>FETCH</title>
<polygon fill="#ffffff" fill-opacity="0.003922" stroke="transparent" stroke-width="2" points="1044.5,-380 983.5,-380 983.5,-344 1044.5,-344 1044.5,-380"/>
<text text-anchor="start" x="994.505" y="-358.2" font-family="Helvetica,sans-Serif" font-size="12.00" fill="#000000">FETCH</text>
<path fill="none" stroke="#000000" stroke-width="2" d="M995.8333,-345C995.8333,-345 1032.1667,-345 1032.1667,-345 1037.8333,-345 1043.5,-350.6667 1043.5,-356.3333 1043.5,-356.3333 1043.5,-367.6667 1043.5,-367.6667 1043.5,-373.3333 1037.8333,-379 1032.1667,-379 1032.1667,-379 995.8333,-379 995.8333,-379 990.1667,-379 984.5,-373.3333 984.5,-367.6667 984.5,-367.6667 984.5,-356.3333 984.5,-356.3333 984.5,-350.6667 990.1667,-345 995.8333,-345"/>
</g>
<!-- DECODE -->
<g id="node3" class="node state regular">
<title>DECODE</title>
<polygon fill="#ffffff" fill-opacity="0.003922" stroke="transparent" stroke-width="2" points="540.5,-298 467.5,-298 467.5,-262 540.5,-262 540.5,-298"/>
<text text-anchor="start" x="478.8356" y="-276.2" font-family="Helvetica,sans-Serif" font-size="12.00" fill="#000000">DECODE</text>
<path fill="none" stroke="#000000" stroke-width="2" d="M479.8333,-263C479.8333,-263 528.1667,-263 528.1667,-263 533.8333,-263 539.5,-268.6667 539.5,-274.3333 539.5,-274.3333 539.5,-285.6667 539.5,-285.6667 539.5,-291.3333 533.8333,-297 528.1667,-297 528.1667,-297 479.8333,-297 479.8333,-297 474.1667,-297 468.5,-291.3333 468.5,-285.6667 468.5,-285.6667 468.5,-274.3333 468.5,-274.3333 468.5,-268.6667 474.1667,-263 479.8333,-263"/>
</g>
<!-- FETCH&#45;&gt;DECODE -->
<g id="edge1" class="edge transition">
<title>FETCH&#45;&gt;DECODE</title>
<path fill="none" stroke="#000000" d="M983.2457,-357.0552C897.1525,-343.2128 653.3299,-304.0099 550.5756,-287.4886"/>
<polygon fill="#000000" stroke="#000000" points="550.9289,-284.0006 540.5,-285.8686 549.8176,-290.9118 550.9289,-284.0006"/>
<text text-anchor="middle" x="793.3895" y="-318" font-family="Helvetica,sans-Serif" font-size="10.00" fill="#000000"> </text>
</g>
<!-- MEMADR -->
<g id="node4" class="node state regular">
<title>MEMADR</title>
<polygon fill="#ffffff" fill-opacity="0.003922" stroke="transparent" stroke-width="2" points="750.5,-216 675.5,-216 675.5,-180 750.5,-180 750.5,-216"/>
<text text-anchor="start" x="686.8396" y="-194.2" font-family="Helvetica,sans-Serif" font-size="12.00" fill="#000000">MEMADR</text>
<path fill="none" stroke="#000000" stroke-width="2" d="M687.8333,-181C687.8333,-181 738.1667,-181 738.1667,-181 743.8333,-181 749.5,-186.6667 749.5,-192.3333 749.5,-192.3333 749.5,-203.6667 749.5,-203.6667 749.5,-209.3333 743.8333,-215 738.1667,-215 738.1667,-215 687.8333,-215 687.8333,-215 682.1667,-215 676.5,-209.3333 676.5,-203.6667 676.5,-203.6667 676.5,-192.3333 676.5,-192.3333 676.5,-186.6667 682.1667,-181 687.8333,-181"/>
</g>
<!-- DECODE&#45;&gt;MEMADR -->
<g id="edge2" class="edge transition">
<title>DECODE&#45;&gt;MEMADR</title>
<path fill="none" stroke="#000000" d="M540.5773,-277.6734C574.3342,-274.2509 624.9861,-265.8077 664,-245 673.9848,-239.6747 683.3717,-231.734 691.2049,-223.8883"/>
<polygon fill="#000000" stroke="#000000" points="694.1665,-225.8496 698.4848,-216.1747 689.0757,-221.045 694.1665,-225.8496"/>
<text text-anchor="start" x="680" y="-236" font-family="Helvetica,sans-Serif" font-size="10.00" fill="#000000">op == 7&#39;b0000011 &#160;&#160;</text>
</g>
<!-- DECODE&#45;&gt;MEMADR -->
<g id="edge3" class="edge transition">
<title>DECODE&#45;&gt;MEMADR</title>
<path fill="none" stroke="#000000" d="M525.0388,-261.8922C537.4264,-252.0653 553.8135,-240.44 570.069,-233 600.2753,-219.1748 636.6718,-210.3642 665.1769,-205.041"/>
<polygon fill="#000000" stroke="#000000" points="666.0663,-208.4377 675.2956,-203.2348 664.8362,-201.5466 666.0663,-208.4377"/>
<text text-anchor="start" x="570" y="-236" font-family="Helvetica,sans-Serif" font-size="10.00" fill="#000000">op == 7&#39;b0100011 &#160;&#160;</text>
</g>
<!-- EXECUTER -->
<g id="node8" class="node state regular">
<title>EXECUTER</title>
<polygon fill="#ffffff" fill-opacity="0.003922" stroke="transparent" stroke-width="2" points="461.5,-216 374.5,-216 374.5,-180 461.5,-180 461.5,-216"/>
<text text-anchor="start" x="385.8348" y="-194.2" font-family="Helvetica,sans-Serif" font-size="12.00" fill="#000000">EXECUTER</text>
<path fill="none" stroke="#000000" stroke-width="2" d="M386.8333,-181C386.8333,-181 449.1667,-181 449.1667,-181 454.8333,-181 460.5,-186.6667 460.5,-192.3333 460.5,-192.3333 460.5,-203.6667 460.5,-203.6667 460.5,-209.3333 454.8333,-215 449.1667,-215 449.1667,-215 386.8333,-215 386.8333,-215 381.1667,-215 375.5,-209.3333 375.5,-203.6667 375.5,-203.6667 375.5,-192.3333 375.5,-192.3333 375.5,-186.6667 381.1667,-181 386.8333,-181"/>
</g>
<!-- DECODE&#45;&gt;EXECUTER -->
<g id="edge6" class="edge transition">
<title>DECODE&#45;&gt;EXECUTER</title>
<path fill="none" stroke="#000000" d="M475.1054,-261.978C467.8942,-256.8931 460.4147,-251.0774 454.069,-245 447.5553,-238.7617 441.272,-231.2826 435.8255,-224.1447"/>
<polygon fill="#000000" stroke="#000000" points="438.5947,-222.0025 429.8525,-216.017 432.954,-226.1477 438.5947,-222.0025"/>
<text text-anchor="start" x="454" y="-236" font-family="Helvetica,sans-Serif" font-size="10.00" fill="#000000">op == 7&#39;b0110011 &#160;&#160;</text>
</g>
<!-- LUI -->
<g id="node9" class="node state regular">
<title>LUI</title>
<polygon fill="#ffffff" fill-opacity="0.003922" stroke="transparent" stroke-width="2" points="332,-216 276,-216 276,-180 332,-180 332,-216"/>
<text text-anchor="start" x="294.6658" y="-194.2" font-family="Helvetica,sans-Serif" font-size="12.00" fill="#000000">LUI</text>
<path fill="none" stroke="#000000" stroke-width="2" d="M288.3333,-181C288.3333,-181 319.6667,-181 319.6667,-181 325.3333,-181 331,-186.6667 331,-192.3333 331,-192.3333 331,-203.6667 331,-203.6667 331,-209.3333 325.3333,-215 319.6667,-215 319.6667,-215 288.3333,-215 288.3333,-215 282.6667,-215 277,-209.3333 277,-203.6667 277,-203.6667 277,-192.3333 277,-192.3333 277,-186.6667 282.6667,-181 288.3333,-181"/>
</g>
<!-- DECODE&#45;&gt;LUI -->
<g id="edge8" class="edge transition">
<title>DECODE&#45;&gt;LUI</title>
<path fill="none" stroke="#000000" d="M467.4215,-277.7074C434.5982,-274.3119 386.0424,-265.8893 349.069,-245 339.62,-239.6615 330.9199,-231.7175 323.7358,-223.8728"/>
<polygon fill="#000000" stroke="#000000" points="326.2669,-221.4485 317.0855,-216.1615 320.9659,-226.0201 326.2669,-221.4485"/>
<text text-anchor="start" x="349" y="-236" font-family="Helvetica,sans-Serif" font-size="10.00" fill="#000000">op == 7&#39;b0110111 &#160;&#160;</text>
</g>
<!-- EXECUTEI -->
<g id="node10" class="node state regular">
<title>EXECUTEI</title>
<polygon fill="#ffffff" fill-opacity="0.003922" stroke="transparent" stroke-width="2" points="235,-216 153,-216 153,-180 235,-180 235,-216"/>
<text text-anchor="start" x="163.9988" y="-194.2" font-family="Helvetica,sans-Serif" font-size="12.00" fill="#000000">EXECUTEI</text>
<path fill="none" stroke="#000000" stroke-width="2" d="M165.3333,-181C165.3333,-181 222.6667,-181 222.6667,-181 228.3333,-181 234,-186.6667 234,-192.3333 234,-192.3333 234,-203.6667 234,-203.6667 234,-209.3333 228.3333,-215 222.6667,-215 222.6667,-215 165.3333,-215 165.3333,-215 159.6667,-215 154,-209.3333 154,-203.6667 154,-203.6667 154,-192.3333 154,-192.3333 154,-186.6667 159.6667,-181 165.3333,-181"/>
</g>
<!-- DECODE&#45;&gt;EXECUTEI -->
<g id="edge5" class="edge transition">
<title>DECODE&#45;&gt;EXECUTEI</title>
<path fill="none" stroke="#000000" d="M467.0951,-278.1337C403.9445,-274.447 278.1806,-264.8112 239.069,-245 229.2361,-240.0193 220.3557,-232.015 213.1285,-224.0126"/>
<polygon fill="#000000" stroke="#000000" points="215.5994,-221.5135 206.4784,-216.123 210.2471,-226.0249 215.5994,-221.5135"/>
<text text-anchor="start" x="239" y="-236" font-family="Helvetica,sans-Serif" font-size="10.00" fill="#000000">op == 7&#39;b0010011 &#160;&#160;</text>
</g>
<!-- JAL -->
<g id="node11" class="node state regular">
<title>JAL</title>
<polygon fill="#ffffff" fill-opacity="0.003922" stroke="transparent" stroke-width="2" points="92,-216 36,-216 36,-180 92,-180 92,-216"/>
<text text-anchor="start" x="53.6632" y="-194.2" font-family="Helvetica,sans-Serif" font-size="12.00" fill="#000000">JAL</text>
<path fill="none" stroke="#000000" stroke-width="2" d="M48.3333,-181C48.3333,-181 79.6667,-181 79.6667,-181 85.3333,-181 91,-186.6667 91,-192.3333 91,-192.3333 91,-203.6667 91,-203.6667 91,-209.3333 85.3333,-215 79.6667,-215 79.6667,-215 48.3333,-215 48.3333,-215 42.6667,-215 37,-209.3333 37,-203.6667 37,-203.6667 37,-192.3333 37,-192.3333 37,-186.6667 42.6667,-181 48.3333,-181"/>
</g>
<!-- DECODE&#45;&gt;JAL -->
<g id="edge7" class="edge transition">
<title>DECODE&#45;&gt;JAL</title>
<path fill="none" stroke="#000000" d="M467.3161,-279.0671C385.3046,-276.5829 189.5018,-268.3252 128.069,-245 114.606,-239.8883 101.4693,-231.1302 90.6314,-222.5496"/>
<polygon fill="#000000" stroke="#000000" points="92.7591,-219.7672 82.8244,-216.0858 88.295,-225.1591 92.7591,-219.7672"/>
<text text-anchor="start" x="128" y="-236" font-family="Helvetica,sans-Serif" font-size="10.00" fill="#000000">op == 7&#39;b1101111 &#160;&#160;</text>
</g>
<!-- BEQ -->
<g id="node13" class="node state regular">
<title>BEQ</title>
<polygon fill="#ffffff" fill-opacity="0.003922" stroke="transparent" stroke-width="2" points="905,-216 849,-216 849,-180 905,-180 905,-216"/>
<text text-anchor="start" x="864.3298" y="-194.2" font-family="Helvetica,sans-Serif" font-size="12.00" fill="#000000">BEQ</text>
<path fill="none" stroke="#000000" stroke-width="2" d="M861.3333,-181C861.3333,-181 892.6667,-181 892.6667,-181 898.3333,-181 904,-186.6667 904,-192.3333 904,-192.3333 904,-203.6667 904,-203.6667 904,-209.3333 898.3333,-215 892.6667,-215 892.6667,-215 861.3333,-215 861.3333,-215 855.6667,-215 850,-209.3333 850,-203.6667 850,-203.6667 850,-192.3333 850,-192.3333 850,-186.6667 855.6667,-181 861.3333,-181"/>
</g>
<!-- DECODE&#45;&gt;BEQ -->
<g id="edge4" class="edge transition">
<title>DECODE&#45;&gt;BEQ</title>
<path fill="none" stroke="#000000" d="M540.5074,-278.7185C593.0591,-276.1041 692.6518,-268.26 774,-245 796.5746,-238.5452 820.508,-227.881 839.617,-218.3411"/>
<polygon fill="#000000" stroke="#000000" points="841.2628,-221.4307 848.5831,-213.7715 838.0842,-215.1939 841.2628,-221.4307"/>
<text text-anchor="start" x="806" y="-236" font-family="Helvetica,sans-Serif" font-size="10.00" fill="#000000">op == 7&#39;b1100011 &#160;&#160;</text>
</g>
<!-- MEMREAD -->
<g id="node5" class="node state regular">
<title>MEMREAD</title>
<polygon fill="#ffffff" fill-opacity="0.003922" stroke="transparent" stroke-width="2" points="810.5,-134 727.5,-134 727.5,-98 810.5,-98 810.5,-134"/>
<text text-anchor="start" x="738.8382" y="-112.2" font-family="Helvetica,sans-Serif" font-size="12.00" fill="#000000">MEMREAD</text>
<path fill="none" stroke="#000000" stroke-width="2" d="M739.8333,-99C739.8333,-99 798.1667,-99 798.1667,-99 803.8333,-99 809.5,-104.6667 809.5,-110.3333 809.5,-110.3333 809.5,-121.6667 809.5,-121.6667 809.5,-127.3333 803.8333,-133 798.1667,-133 798.1667,-133 739.8333,-133 739.8333,-133 734.1667,-133 728.5,-127.3333 728.5,-121.6667 728.5,-121.6667 728.5,-110.3333 728.5,-110.3333 728.5,-104.6667 734.1667,-99 739.8333,-99"/>
</g>
<!-- MEMADR&#45;&gt;MEMREAD -->
<g id="edge9" class="edge transition">
<title>MEMADR&#45;&gt;MEMREAD</title>
<path fill="none" stroke="#000000" d="M721.575,-179.5661C726.0331,-170.65 731.8455,-159.9639 738.069,-151 740.1819,-147.9567 742.5258,-144.8849 744.951,-141.8917"/>
<polygon fill="#000000" stroke="#000000" points="747.655,-144.1146 751.4574,-134.2256 742.318,-139.585 747.655,-144.1146"/>
<text text-anchor="start" x="738" y="-154" font-family="Helvetica,sans-Serif" font-size="10.00" fill="#000000">op == 7&#39;b0000011 &#160;&#160;</text>
</g>
<!-- MEMWRITE -->
<g id="node7" class="node state regular">
<title>MEMWRITE</title>
<polygon fill="#ffffff" fill-opacity="0.003922" stroke="transparent" stroke-width="2" points="936,-134 848,-134 848,-98 936,-98 936,-134"/>
<text text-anchor="start" x="858.6748" y="-112.2" font-family="Helvetica,sans-Serif" font-size="12.00" fill="#000000">MEMWRITE</text>
<path fill="none" stroke="#000000" stroke-width="2" d="M860.3333,-99C860.3333,-99 923.6667,-99 923.6667,-99 929.3333,-99 935,-104.6667 935,-110.3333 935,-110.3333 935,-121.6667 935,-121.6667 935,-127.3333 929.3333,-133 923.6667,-133 923.6667,-133 860.3333,-133 860.3333,-133 854.6667,-133 849,-127.3333 849,-121.6667 849,-121.6667 849,-110.3333 849,-110.3333 849,-104.6667 854.6667,-99 860.3333,-99"/>
</g>
<!-- MEMADR&#45;&gt;MEMWRITE -->
<g id="edge10" class="edge transition">
<title>MEMADR&#45;&gt;MEMWRITE</title>
<path fill="none" stroke="#000000" d="M750.7325,-189.9396C773.7907,-184.1913 803.4636,-175.2923 828,-163 840.254,-156.861 852.6429,-148.4014 863.2137,-140.3496"/>
<polygon fill="#000000" stroke="#000000" points="865.5582,-142.9589 871.2642,-134.0319 861.2366,-137.4521 865.5582,-142.9589"/>
<text text-anchor="start" x="847" y="-154" font-family="Helvetica,sans-Serif" font-size="10.00" fill="#000000">op == 7&#39;b0100011 &#160;&#160;</text>
</g>
<!-- MEMWB -->
<g id="node6" class="node state regular">
<title>MEMWB</title>
<polygon fill="#ffffff" fill-opacity="0.003922" stroke="transparent" stroke-width="2" points="914.5,-52 845.5,-52 845.5,-16 914.5,-16 914.5,-52"/>
<text text-anchor="start" x="856.839" y="-30.2" font-family="Helvetica,sans-Serif" font-size="12.00" fill="#000000">MEMWB</text>
<path fill="none" stroke="#000000" stroke-width="2" d="M857.8333,-17C857.8333,-17 902.1667,-17 902.1667,-17 907.8333,-17 913.5,-22.6667 913.5,-28.3333 913.5,-28.3333 913.5,-39.6667 913.5,-39.6667 913.5,-45.3333 907.8333,-51 902.1667,-51 902.1667,-51 857.8333,-51 857.8333,-51 852.1667,-51 846.5,-45.3333 846.5,-39.6667 846.5,-39.6667 846.5,-28.3333 846.5,-28.3333 846.5,-22.6667 852.1667,-17 857.8333,-17"/>
</g>
<!-- MEMREAD&#45;&gt;MEMWB -->
<g id="edge11" class="edge transition">
<title>MEMREAD&#45;&gt;MEMWB</title>
<path fill="none" stroke="#000000" d="M793.6345,-97.8015C809.4424,-86.1237 830.1486,-70.8272 847.3236,-58.1393"/>
<polygon fill="#000000" stroke="#000000" points="849.4707,-60.9046 855.4344,-52.1476 845.3114,-55.2743 849.4707,-60.9046"/>
<text text-anchor="middle" x="832.3895" y="-72" font-family="Helvetica,sans-Serif" font-size="10.00" fill="#000000"> </text>
</g>
<!-- MEMWB&#45;&gt;FETCH -->
<g id="edge12" class="edge transition">
<title>MEMWB&#45;&gt;FETCH</title>
<path fill="none" stroke="#000000" d="M914.609,-38.2189C967.9093,-45.1924 1064,-59.8634 1064,-75 1064,-171.5 1064,-171.5 1064,-171.5 1064,-207.9553 1066,-217.0447 1066,-253.5 1066,-321 1066,-321 1066,-321 1066,-330.5402 1060.5359,-338.2036 1053.1502,-344.2044"/>
<polygon fill="#000000" stroke="#000000" points="1050.8366,-341.5459 1044.5494,-350.0736 1054.7823,-347.3279 1050.8366,-341.5459"/>
<text text-anchor="middle" x="1066.3895" y="-195" font-family="Helvetica,sans-Serif" font-size="10.00" fill="#000000"> </text>
</g>
<!-- MEMWRITE&#45;&gt;FETCH -->
<g id="edge13" class="edge transition">
<title>MEMWRITE&#45;&gt;FETCH</title>
<path fill="none" stroke="#000000" d="M936.3152,-123.4248C949.7652,-127.2926 963.9033,-133.1491 975,-142 1019.8438,-177.7681 1040,-196.1387 1040,-253.5 1040,-321 1040,-321 1040,-321 1040,-325.9044 1038.6568,-330.6975 1036.5809,-335.1765"/>
<polygon fill="#000000" stroke="#000000" points="1033.5258,-333.4674 1031.4866,-343.8642 1039.5642,-337.0083 1033.5258,-333.4674"/>
<text text-anchor="middle" x="1040.3895" y="-236" font-family="Helvetica,sans-Serif" font-size="10.00" fill="#000000"> </text>
</g>
<!-- ALUWB -->
<g id="node12" class="node state regular">
<title>ALUWB</title>
<polygon fill="#ffffff" fill-opacity="0.003922" stroke="transparent" stroke-width="2" points="336,-134 272,-134 272,-98 336,-98 336,-134"/>
<text text-anchor="start" x="282.667" y="-112.2" font-family="Helvetica,sans-Serif" font-size="12.00" fill="#000000">ALUWB</text>
<path fill="none" stroke="#000000" stroke-width="2" d="M284.3333,-99C284.3333,-99 323.6667,-99 323.6667,-99 329.3333,-99 335,-104.6667 335,-110.3333 335,-110.3333 335,-121.6667 335,-121.6667 335,-127.3333 329.3333,-133 323.6667,-133 323.6667,-133 284.3333,-133 284.3333,-133 278.6667,-133 273,-127.3333 273,-121.6667 273,-121.6667 273,-110.3333 273,-110.3333 273,-104.6667 278.6667,-99 284.3333,-99"/>
</g>
<!-- EXECUTER&#45;&gt;ALUWB -->
<g id="edge14" class="edge transition">
<title>EXECUTER&#45;&gt;ALUWB</title>
<path fill="none" stroke="#000000" d="M392.6997,-179.8015C376.4646,-168.1237 355.1987,-152.8272 337.5595,-140.1393"/>
<polygon fill="#000000" stroke="#000000" points="339.3914,-137.1456 329.2296,-134.1476 335.3039,-142.8282 339.3914,-137.1456"/>
<text text-anchor="middle" x="369.3895" y="-154" font-family="Helvetica,sans-Serif" font-size="10.00" fill="#000000"> </text>
</g>
<!-- LUI&#45;&gt;ALUWB -->
<g id="edge15" class="edge transition">
<title>LUI&#45;&gt;ALUWB</title>
<path fill="none" stroke="#000000" d="M304,-179.8015C304,-169.3976 304,-156.1215 304,-144.3768"/>
<polygon fill="#000000" stroke="#000000" points="307.5001,-144.1476 304,-134.1476 300.5001,-144.1476 307.5001,-144.1476"/>
<text text-anchor="middle" x="305.3895" y="-154" font-family="Helvetica,sans-Serif" font-size="10.00" fill="#000000"> </text>
</g>
<!-- EXECUTEI&#45;&gt;ALUWB -->
<g id="edge16" class="edge transition">
<title>EXECUTEI&#45;&gt;ALUWB</title>
<path fill="none" stroke="#000000" d="M218.4126,-179.8015C234.078,-168.1237 254.5977,-152.8272 271.618,-140.1393"/>
<polygon fill="#000000" stroke="#000000" points="273.73,-142.9304 279.6557,-134.1476 269.5464,-137.3182 273.73,-142.9304"/>
<text text-anchor="middle" x="257.3895" y="-154" font-family="Helvetica,sans-Serif" font-size="10.00" fill="#000000"> </text>
</g>
<!-- JAL&#45;&gt;ALUWB -->
<g id="edge17" class="edge transition">
<title>JAL&#45;&gt;ALUWB</title>
<path fill="none" stroke="#000000" d="M92.0008,-188.4331C133.9931,-174.0857 213.5487,-146.9042 262.3625,-130.2262"/>
<polygon fill="#000000" stroke="#000000" points="263.66,-133.4816 271.9913,-126.9363 261.3967,-126.8575 263.66,-133.4816"/>
<text text-anchor="middle" x="200.3895" y="-154" font-family="Helvetica,sans-Serif" font-size="10.00" fill="#000000"> </text>
</g>
<!-- ALUWB&#45;&gt;FETCH -->
<g id="edge18" class="edge transition">
<title>ALUWB&#45;&gt;FETCH</title>
<path fill="none" stroke="#000000" d="M336.3064,-117.4781C457.4525,-123.0618 880.896,-142.9592 941,-151 953.6146,-152.6876 969,-144.273 969,-157 969,-321 969,-321 969,-321 969,-327.888 971.9164,-333.9261 976.2644,-339.1006"/>
<polygon fill="#000000" stroke="#000000" points="973.8575,-341.6418 983.486,-346.0625 978.7158,-336.6023 973.8575,-341.6418"/>
<text text-anchor="middle" x="970.3895" y="-236" font-family="Helvetica,sans-Serif" font-size="10.00" fill="#000000"> </text>
</g>
<!-- BEQ&#45;&gt;FETCH -->
<g id="edge19" class="edge transition">
<title>BEQ&#45;&gt;FETCH</title>
<path fill="none" stroke="#000000" d="M905.3976,-200.8634C927.8078,-204.6013 958.3104,-213.2066 977,-233 1002.8142,-260.3388 1010.7858,-304.4742 1013.1521,-333.3643"/>
<polygon fill="#000000" stroke="#000000" points="1009.6771,-333.868 1013.8101,-343.6235 1016.6628,-333.4199 1009.6771,-333.868"/>
<text text-anchor="middle" x="1008.3895" y="-277" font-family="Helvetica,sans-Serif" font-size="10.00" fill="#000000"> </text>
</g>
</g>
</svg>
